# xmcd CD database file
#
# Track frame offsets:
#	150
#	52276
#	79875
#	110886
#	136799
#	164233
#	187350
#	200179
#	233143
#
# Disc length: 4432 seconds
#
# Revision: 0
# Processed by: cddbd v1.5.2PL0 Copyright (c) Steve Scherf et al.
# Submitted via: CDex 1.70beta2
#
DISCID=94114e09
DTITLE=Koh-Tao - 音・おん
DYEAR=1900
DGENRE=New Age
TTITLE0=おん
TTITLE1=天のしずく
TTITLE2=あまなみ
TTITLE3=Ricomend
TTITLE4=水龍
TTITLE5=Sabanna
TTITLE6=Gopla Radhey Krishna
TTITLE7=Mt.Moon
TTITLE8=(Secret Track)
EXTD=
EXTT0=
EXTT1=
EXTT2=
EXTT3=
EXTT4=
EXTT5=
EXTT6=
EXTT7=
EXTT8=
PLAYORDER=
